<?xml version="1.0" standalone="no"?>
<!DOCTYPE svg PUBLIC "-//W3C//DTD SVG 20010904//EN"
 "http://www.w3.org/TR/2001/REC-SVG-20010904/DTD/svg10.dtd">
<svg version="1.0" xmlns="http://www.w3.org/2000/svg"
 width="342.000000pt" height="342.000000pt" viewBox="0 0 342.000000 342.000000"
 preserveAspectRatio="xMidYMid meet">

<g transform="translate(0.000000,342.000000) scale(0.100000,-0.100000)"
fill="#000000" stroke="none">
<path d="M0 1710 l0 -1710 1710 0 1710 0 0 1710 0 1710 -1710 0 -1710 0 0
-1710z m1725 1186 c45 -19 75 -69 75 -125 0 -37 -6 -49 -39 -82 -35 -35 -44
-39 -88 -39 -137 0 -183 177 -62 242 41 22 68 23 114 4z m280 -162 c125 -69
236 -186 295 -310 18 -36 30 -67 28 -69 -2 -3 -20 -11 -40 -19 l-35 -15 -38
77 c-53 106 -161 214 -267 267 -42 20 -75 42 -73 49 23 65 25 67 48 61 12 -4
49 -22 82 -41z m-561 20 c9 -8 16 -22 16 -29 0 -18 -27 -45 -45 -45 -18 0 -45
27 -45 45 0 18 27 45 45 45 7 0 21 -7 29 -16z m-144 -89 c7 -8 10 -25 6 -40
-5 -20 -13 -25 -36 -25 -36 0 -56 30 -40 60 13 24 52 26 70 5z m-122 -117 c34
-34 -6 -90 -48 -68 -23 12 -28 65 -7 73 22 9 43 7 55 -5z m663 -75 c80 -39
150 -111 187 -191 24 -50 27 -69 27 -162 0 -93 -3 -112 -27 -162 -37 -79 -108
-152 -185 -190 -53 -26 -80 -32 -148 -36 -101 -5 -171 14 -248 67 -190 133
-224 411 -72 580 49 54 85 79 154 108 48 20 70 23 151 21 84 -3 103 -7 161
-35z m-741 -78 c10 -12 10 -21 2 -40 -19 -40 -82 -29 -82 15 0 37 55 55 80 25z
m-52 -157 c34 -34 -6 -90 -48 -68 -35 19 -20 80 20 80 9 0 21 -5 28 -12z
m1277 -48 c5 0 22 12 37 27 l28 27 30 -29 30 -29 -32 -33 -32 -33 32 -33 32
-33 -30 -29 -30 -29 -33 32 -33 32 -29 -30 -29 -30 -30 30 -30 30 29 30 29 30
-29 30 -29 30 29 30 29 30 26 -25 c14 -14 30 -25 35 -25z m-1277 -122 c34 -34
-6 -90 -48 -68 -35 19 -20 80 20 80 9 0 21 -5 28 -12z m58 -183 c9 -22 -15
-55 -39 -55 -47 0 -63 48 -25 74 23 16 54 7 64 -19z m1218 5 c4 -5 -11 -46
-35 -92 -70 -136 -222 -274 -361 -327 -24 -9 -27 -7 -41 29 l-15 39 76 38
c105 51 212 159 266 265 l38 76 32 -10 c17 -6 35 -14 40 -18z m-1153 -130 c37
-20 15 -87 -27 -78 -9 2 -23 12 -30 23 -12 18 -11 24 2 43 17 25 27 27 55 12z
m120 -120 c23 -13 25 -52 4 -70 -19 -15 -61 -6 -69 16 -7 18 18 64 35 64 6 0
19 -5 30 -10z m153 -96 c21 -21 20 -37 -3 -58 -25 -23 -59 -13 -67 20 -12 46
37 72 70 38z m341 -14 l29 -31 -82 -82 -82 -82 -60 60 -60 59 27 28 c32 34 40
34 70 6 l24 -22 47 47 c26 26 49 47 52 47 4 0 19 -14 35 -30z m218 -409 c5 -5
6 -18 2 -30 -5 -17 -9 -19 -30 -9 -30 14 -57 -5 -53 -36 2 -16 11 -22 36 -24
24 -2 32 -8 32 -23 0 -15 -7 -19 -35 -19 l-35 0 0 -110 0 -110 -25 0 -25 0 0
106 c0 97 -2 106 -20 111 -11 3 -20 13 -20 23 0 10 9 20 20 23 14 4 20 14 20
34 0 51 44 87 95 78 16 -3 33 -9 38 -14z m-383 -98 l0 -107 53 52 c43 42 59
52 87 52 l34 0 -49 -50 -48 -49 51 -78 52 -78 -32 -3 c-19 -2 -34 2 -39 10 -4
7 -22 33 -39 56 -30 42 -32 43 -51 26 -12 -11 -19 -30 -19 -56 0 -36 -2 -38
-30 -38 l-30 0 0 185 0 185 30 0 30 0 0 -107z m480 -78 l0 -185 -25 0 -25 0 0
185 0 185 25 0 25 0 0 -185z m-1497 42 c21 -65 42 -115 46 -112 3 3 22 56 41
118 33 103 38 112 62 115 26 3 28 -1 64 -117 21 -67 40 -119 43 -115 3 3 24
55 46 117 39 109 41 112 73 115 l32 3 -60 -172 c-33 -95 -60 -174 -60 -176 0
-2 -14 -3 -32 -1 -23 2 -33 9 -39 28 -4 14 -20 64 -35 112 -27 90 -37 100 -49
51 -3 -16 -18 -65 -32 -111 -25 -82 -26 -83 -56 -80 -29 3 -31 7 -88 168 -32
91 -59 169 -59 173 0 5 14 7 32 5 31 -3 32 -5 71 -121z m633 18 c34 -22 64
-74 64 -110 0 -39 -28 -94 -61 -118 -35 -25 -117 -27 -153 -3 -94 61 -84 195
19 242 36 17 96 12 131 -11z m272 -3 c3 -16 -5 -25 -32 -36 -47 -19 -56 -41
-56 -130 l0 -76 -30 0 -30 0 0 130 0 130 30 0 c24 0 30 -4 30 -21 0 -20 1 -20
31 6 35 29 53 28 57 -3z m877 4 c54 -35 73 -127 39 -185 -50 -85 -188 -85
-238 -1 -37 64 -8 166 57 196 39 17 107 13 142 -10z m180 -86 l32 -95 32 98
c32 96 33 97 64 97 32 0 32 -1 61 -95 16 -53 32 -92 36 -88 3 4 18 47 34 96
26 83 28 87 57 87 16 0 29 -1 29 -2 -1 -2 -20 -59 -44 -128 l-43 -125 -34 -3
-35 -3 -28 86 c-15 48 -31 84 -34 80 -4 -3 -19 -41 -33 -83 -25 -75 -27 -77
-60 -80 l-34 -3 -42 123 c-24 68 -43 127 -43 131 0 5 12 7 27 5 24 -3 29 -12
58 -98z m-1015 -231 c0 -45 2 -50 18 -44 39 17 68 16 92 -3 21 -17 24 -29 28
-105 4 -83 4 -87 -17 -87 -20 0 -21 5 -21 78 0 83 -9 102 -46 102 -37 0 -54
-36 -54 -112 0 -54 -3 -68 -15 -68 -13 0 -15 23 -15 145 0 122 2 145 15 145
11 0 15 -12 15 -51z m660 -94 c0 -122 -2 -145 -15 -145 -13 0 -15 23 -15 145
0 122 2 145 15 145 13 0 15 -23 15 -145z m-972 49 c23 -16 30 -44 11 -44 -6 0
-17 7 -25 15 -19 19 -58 19 -73 1 -14 -17 1 -31 44 -41 51 -12 75 -33 75 -64
0 -36 -18 -51 -68 -58 -44 -6 -76 7 -92 37 -16 30 16 40 36 11 18 -25 65 -28
84 -6 17 20 7 29 -57 49 -51 17 -63 30 -63 66 0 25 37 50 75 50 17 0 41 -7 53
-16z m216 -5 c27 -22 35 -49 13 -49 -7 0 -20 9 -30 20 -45 53 -116 -15 -92
-89 14 -45 87 -53 100 -11 8 26 35 26 35 1 0 -25 -46 -61 -77 -61 -29 0 -63
17 -80 39 -16 21 -16 111 0 132 33 42 90 50 131 18z m416 6 c75 -39 57 -175
-26 -191 -55 -10 -100 15 -115 64 -29 98 53 172 141 127z m220 0 c75 -39 57
-175 -26 -191 -55 -10 -100 15 -115 64 -29 98 53 172 141 127z"/>
<path d="M1642 2808 c-34 -34 6 -90 48 -68 35 19 20 80 -20 80 -9 0 -21 -5
-28 -12z"/>
<path d="M1584 2414 c-78 -24 -143 -79 -181 -153 -29 -55 -33 -72 -33 -139 0
-60 5 -88 24 -127 52 -111 156 -177 278 -177 264 0 401 313 223 510 -74 83
-205 119 -311 86z m128 -161 l3 -88 43 -3 c42 -3 42 -3 42 -43 l0 -39 -85 0
-85 0 0 130 0 130 40 0 39 0 3 -87z"/>
<path d="M1105 955 c-27 -26 -34 -80 -15 -115 14 -27 64 -41 100 -28 83 29 58
168 -30 168 -19 0 -40 -9 -55 -25z"/>
<path d="M2249 951 c-56 -56 -22 -145 56 -145 78 0 112 89 56 145 -38 38 -74
38 -112 0z"/>
<path d="M1780 610 c-41 -41 -14 -130 40 -130 32 0 60 36 60 75 0 39 -28 75
-60 75 -11 0 -29 -9 -40 -20z"/>
<path d="M2000 610 c-41 -41 -14 -130 40 -130 32 0 60 36 60 75 0 39 -28 75
-60 75 -11 0 -29 -9 -40 -20z"/>
</g>
</svg>
